<svg xmlns="http://www.w3.org/2000/svg" width="102" height="32" viewBox="0 0 102 32"><g><g><path fill="#fff" d="M92.698 11.125L95.61 0h1.853l-4.766 18.18L87.935 0h1.85zm3.037 10.083v10.77H93.95V20.946L100.135 0H102zm-4.717-.262v11.032h-1.787v-10.77L82.967 0h1.86zm-14.7 9.236c4.132 0 6.14-2.146 6.14-6.561V8.357c0-4.415-2.008-6.56-6.14-6.56h-8.355V0h8.355c5.112 0 7.926 2.968 7.926 8.357v15.264c0 5.39-2.814 8.357-7.926 8.357h-8.355v-1.796zm-3.638-2.516V4.312h3.552c1.504 0 3.295.665 3.295 3.83v15.694c0 3.166-1.791 3.83-3.295 3.83zm3.552-1.796c.795 0 1.509-.156 1.509-2.034V8.142c0-1.878-.714-2.034-1.509-2.034h-1.765V25.87zM49.612 0h7.495l3.268 12.184V0h1.787v18.964l-1.756.234-4.668-17.402h-4.34v30.182H49.61zm4.245 9.22l1.756-.235 5.696 21.197h3.269V0h1.786v31.978h-6.423l-4.298-15.99v15.99h-1.786zM40.378 6.108v6.612h6.476l-.046 1.796h-8.216V4.312h9.934v1.796zm-1.786 21.558V17.031h8.216l.046 1.796h-6.476v7.043h8.148v1.796zm-4.718 4.312V0h14.652v1.796H35.661v28.386h12.865v1.796zm-7.803-9.349c0-2.729-.91-2.94-2.194-2.94h-.736v12.29h-1.787V17.893h2.523c3.568 0 3.98 2.702 3.98 4.735v9.328h-1.786zm4.717.13c0-3.12-.796-4.846-2.582-5.596l-1.858-.782 1.824-.86c1.756-.829 2.573-2.516 2.573-5.31v-2.37c0-4.237-1.823-6.045-6.096-6.045h-8.012V0h8.012c5.305 0 7.883 2.565 7.883 7.84v2.371c0 2.763-.766 4.805-2.281 6.092 2.053 1.644 2.324 4.393 2.324 6.456v9.24h-1.787zm-9.434-7.38V4.311h3.166c2.186 0 3.295 1.346 3.295 4.002v2.976c0 2.713-1.253 4.088-3.724 4.088zm2.737-1.797c1.256 0 1.937-.366 1.937-2.292V8.314c0-2.043-.654-2.206-1.508-2.206h-1.38v7.474zM9.65 4.312h6.718v1.796h-4.932v25.87H9.65zM4.932 6.108H0V4.312h6.718v27.666H4.932zM0 1.796V0h16.367v1.796z"/></g></g></svg>